# xmcd
#
# Track frame offsets:
#	150
#	12120
#	22493
#	35097
#	45909
#	58138
#	69713
#	82962
#	96721
#	108300
#	122131
#	134962
#	147866
#	161526
#	173550
#	185852
#	198061
#	211809
#
# Disc length: 2967 seconds
# Revision: 1
# Processed by: cddbd v1.5.2PL0 Copyright (c) Steve Scherf et al.
# Submitted via: dBpowerAMP V12.0
#
DISCID=0c0b9512
DTITLE=Various Artist - The Ultimate Country Collection [Cd 3]
DYEAR=2002
DGENRE=Country
TTITLE0=The Sons Of The Pioneers - Tumbling Tumbleweeds
TTITLE1=Wilf Carter - No Letter Today
TTITLE2=Tex Ritter - I'm Wastin' My Tears On You
TTITLE3=Roy Acuff - Not A Word From Home
TTITLE4=Gene Autry - Deep In The Heart Of texas
TTITLE5=Bill Monroe and His Blue Grass Boys - Rocky Road Blues
TTITLE6=The Carter Family - Coal Minner's Blues
TTITLE7=Jimmie Rodgers - My Old Pal
TTITLE8=Bob Wills and His Texas Playboys - New San Antonio Rose
TTITLE9=Hank Snow - The Blue Velvet Band
TTITLE10=Ernest Tubbs - Walking The Floor Over You
TTITLE11=Spade Cooley and His Band - Shame On You
TTITLE12=Tex Owens - Cattle Call
TTITLE13=Ted Daffan's Texans - Born To Lose
TTITLE14=Roy Acuff and His Smoky Mountain Boys - Wreck On The Highway
TTITLE15=Bill Monroe and His Blue Grass Boys - Mule Skinner Blues
TTITLE16=Jimmie Rodgers - My Little Lady
TTITLE17=Gene Autry - You Are On My Sunshine
EXTD=
EXTT0=
EXTT1=
EXTT2=
EXTT3=
EXTT4=
EXTT5=
EXTT6=
EXTT7=
EXTT8=
EXTT9=
EXTT10=
EXTT11=
EXTT12=
EXTT13=
EXTT14=
EXTT15=
EXTT16=
EXTT17=
PLAYORDER=
